<?xml version="1.0" encoding="UTF-8" standalone="no"?>
<!DOCTYPE svg PUBLIC "-//W3C//DTD SVG 1.1//EN" "http://www.w3.org/Graphics/SVG/1.1/DTD/svg11.dtd">
<svg width="100%" height="100%" viewBox="0 0 512 512" version="1.1" xmlns="http://www.w3.org/2000/svg" xmlns:xlink="http://www.w3.org/1999/xlink" xml:space="preserve" xmlns:serif="http://www.serif.com/" style="fill-rule:evenodd;clip-rule:evenodd;stroke-linejoin:round;stroke-miterlimit:2;">
    <g transform="matrix(0.1,0,0,-0.1,0,512)">
        <path d="M3225,5114C3057,5088 2943,5052 2807,4982C2490,4820 2261,4517 2184,4160C2161,4054 2158,3808 2179,3705C2227,3460 2340,3248 2514,3074C2684,2904 2878,2799 3122,2743C3225,2720 3497,2720 3598,2743C4091,2856 4445,3217 4541,3705C4549,3745 4555,3837 4555,3920C4555,4078 4543,4155 4499,4293C4370,4692 4034,4997 3620,5091C3537,5110 3293,5124 3225,5114ZM3525,4945C3854,4892 4138,4684 4285,4390C4327,4304 4357,4222 4382,4120C4399,4049 4399,3804 4382,3725C4324,3454 4164,3211 3947,3062C3846,2992 3690,2927 3555,2898C3476,2881 3231,2881 3160,2898C2923,2955 2731,3066 2586,3228C2376,3463 2285,3777 2335,4085C2371,4307 2470,4499 2631,4658C2721,4746 2790,4795 2895,4848C3096,4948 3308,4981 3525,4945Z" style="fill:rgb(190,242,100);fill-rule:nonzero;"/>
        <path d="M3503,4018L3200,3716L3057,3858C2963,3951 2906,4000 2892,4000C2836,4000 2791,3948 2803,3898C2807,3885 2890,3795 2988,3698C3149,3537 3170,3520 3200,3520C3232,3520 3261,3546 3571,3857C3769,4054 3911,4204 3915,4218C3928,4270 3885,4320 3827,4320C3812,4320 3713,4228 3503,4018Z" style="fill:rgb(190,242,100);fill-rule:nonzero;"/>
        <path d="M665,3735C614,3685 650,3600 722,3600C821,3599 918,3476 948,3313L957,3263L771,3264C585,3265 585,3265 510,3234C315,3155 168,3018 80,2836C28,2727 10,2656 3,2525C-14,2208 94,1780 254,1530L309,1445L174,1440C44,1435 37,1434 18,1410C0,1388 -2,1376 3,1303C35,845 423,461 967,351C1022,339 1080,330 1094,330C1119,330 1120,328 1120,269C1120,235 1125,189 1132,166C1148,111 1231,28 1286,12C1318,3 1622,0 2562,0C3959,0 3856,-6 3933,80C3983,135 4000,183 4000,267L4000,327L4059,334C4147,344 4306,385 4396,420C4781,572 5055,882 5109,1227C5127,1344 5124,1387 5095,1415C5072,1439 5066,1440 4938,1440L4805,1440L4792,1513C4785,1552 4778,1596 4775,1610C4770,1633 4777,1639 4862,1679C4936,1715 4971,1740 5037,1804C5110,1875 5120,1889 5120,1920C5120,1951 5110,1965 5038,2035C4974,2097 4934,2125 4865,2160C4816,2184 4773,2205 4772,2207C4770,2208 4775,2240 4784,2279C4794,2322 4800,2395 4800,2470C4800,2585 4799,2592 4775,2615C4752,2639 4746,2640 4623,2640C4470,2640 4395,2624 4296,2572C4214,2529 4117,2437 4080,2368L4056,2322L4005,2367C3849,2509 3672,2569 3450,2556C3124,2537 2694,2491 2330,2435C2206,2416 2099,2400 2093,2400C2087,2400 2081,2446 2077,2518C2070,2656 2053,2725 1999,2837C1901,3042 1707,3204 1498,3256L1430,3272L1475,3329C1551,3426 1600,3560 1600,3672C1600,3725 1565,3760 1512,3760C1375,3760 1225,3695 1121,3589L1051,3518L1031,3559C986,3647 901,3715 801,3744C725,3766 693,3764 665,3735ZM1425,3568C1408,3514 1354,3427 1313,3389C1269,3349 1144,3282 1133,3293C1122,3305 1189,3430 1230,3474C1255,3501 1301,3534 1343,3555C1425,3596 1434,3597 1425,3568ZM1040,3096C1098,3096 1208,3100 1286,3104C1408,3112 1433,3111 1481,3095C1637,3045 1778,2924 1849,2780C1901,2674 1922,2576 1918,2457L1915,2367L1730,2330C1172,2217 887,2099 851,1965C832,1891 860,1822 932,1770C1041,1691 1237,1622 1604,1536L1633,1529L1589,1484L1546,1440L532,1440L473,1504C294,1700 160,2115 160,2475C161,2757 324,2995 582,3090C630,3108 650,3109 785,3103C868,3099 982,3096 1040,3096ZM4637,2393C4634,2344 4626,2290 4620,2273C4609,2242 4605,2240 4559,2240C4476,2240 4360,2211 4270,2167C4223,2145 4181,2124 4176,2122C4160,2114 4177,2197 4203,2254C4248,2352 4361,2444 4467,2469C4488,2474 4536,2478 4574,2479L4643,2480L4637,2393ZM3654,2380C3809,2341 3932,2244 3998,2112C4034,2037 4035,2034 4035,1920C4035,1806 4034,1803 3998,1728C3929,1590 3793,1489 3630,1454C3526,1432 3266,1445 2893,1491L2800,1502L2800,1687C2800,1869 2800,1871 2775,1895C2743,1928 2697,1928 2665,1895C2640,1871 2640,1868 2640,1696L2640,1521L2608,1526C2371,1559 2068,1607 1938,1630C1849,1647 1772,1660 1768,1660C1764,1660 1760,1707 1760,1765C1760,1864 1758,1872 1735,1895C1720,1911 1699,1920 1680,1920C1661,1920 1640,1911 1625,1895C1602,1873 1600,1863 1600,1785C1600,1732 1596,1700 1589,1700C1569,1700 1334,1761 1239,1791C1135,1825 1032,1875 1016,1902C968,1981 1372,2110 2023,2223L2160,2247L2160,1809L2185,1785C2200,1769 2221,1760 2240,1760C2259,1760 2280,1769 2295,1785L2320,1809L2320,2270L2343,2275C2389,2285 2881,2349 3035,2365C3123,2373 3214,2383 3238,2386L3280,2391L3280,1889L3305,1865C3320,1849 3341,1840 3360,1840C3379,1840 3400,1849 3415,1865L3440,1889L3440,2400L3508,2400C3546,2400 3612,2391 3654,2380ZM4724,2050C4791,2027 4849,1994 4900,1950L4935,1920L4910,1899C4770,1783 4598,1736 4451,1774C4373,1794 4263,1851 4225,1890L4196,1920L4220,1945C4271,1999 4368,2049 4465,2070C4526,2084 4658,2074 4724,2050ZM4270,1673C4359,1629 4474,1600 4559,1600C4605,1600 4609,1598 4619,1569C4625,1552 4632,1516 4636,1489L4643,1440L4312,1440L4269,1488C4246,1514 4216,1559 4203,1588C4177,1643 4160,1726 4176,1718C4181,1716 4223,1695 4270,1673ZM4079,1478L4102,1440L3967,1440L4011,1479C4035,1500 4055,1517 4056,1517C4056,1516 4067,1498 4079,1478ZM1960,1466L2085,1442L1927,1441C1764,1440 1764,1440 1793,1478C1806,1494 1814,1493 1960,1466ZM4946,1229C4942,1201 4928,1148 4914,1111C4817,854 4574,642 4260,542C4072,483 4143,485 2560,485C977,485 1048,483 860,542C551,640 307,850 210,1100C194,1142 178,1200 174,1228L167,1280L4953,1280L4946,1229ZM3840,265C3840,219 3836,205 3815,185L3791,160L1329,160L1305,185C1284,205 1280,219 1280,265L1280,320L3840,320L3840,265Z" style="fill:rgb(190,242,100);fill-rule:nonzero;"/>
    </g>
</svg>
