<?xml version="1.0" encoding="UTF-8" standalone="no"?>
<!DOCTYPE svg PUBLIC "-//W3C//DTD SVG 1.1//EN" "http://www.w3.org/Graphics/SVG/1.1/DTD/svg11.dtd">
<svg width="100%" height="100%" viewBox="0 0 512 512" version="1.1" xmlns="http://www.w3.org/2000/svg" xmlns:xlink="http://www.w3.org/1999/xlink" xml:space="preserve" xmlns:serif="http://www.serif.com/" style="fill-rule:evenodd;clip-rule:evenodd;stroke-linejoin:round;stroke-miterlimit:2;">
    <g transform="matrix(0.1,0,0,-0.1,0,512)">
        <path d="M2690,5114C1710,5041 912,4318 740,3345C730,3290 665,3135 439,2633C260,2237 150,1979 150,1960C150,1941 159,1920 175,1905L199,1880L710,1880L710,911L758,855L1244,852L1729,849L1732,449L1735,48L1791,0L3892,0L3950,58L3951,612L3951,1165L4063,1242C4631,1634 4970,2283 4970,2982C4970,3326 4902,3625 4755,3925C4445,4558 3853,4989 3150,5095C3045,5111 2790,5121 2690,5114ZM3031,4940C3529,4889 4005,4644 4319,4276C4641,3898 4800,3471 4800,2982C4800,2675 4736,2402 4601,2125C4441,1799 4209,1538 3898,1336C3850,1305 3804,1269 3795,1257C3782,1238 3780,1164 3780,703L3780,170L1900,170L1900,971L1875,995L1851,1020L881,1020L878,1510L875,1999L852,2022C830,2044 824,2045 599,2048C387,2051 368,2052 373,2068C376,2077 493,2341 635,2654C877,3191 892,3228 910,3329C971,3663 1110,3966 1320,4225C1412,4338 1597,4509 1723,4596C1855,4689 2057,4792 2205,4843C2462,4931 2764,4967 3031,4940Z" style="fill:rgb(196,181,253);fill-rule:nonzero;"/>
        <path d="M2691,4675C2558,4638 2439,4554 2354,4439C2319,4390 2318,4390 2262,4390C2136,4389 2033,4345 1940,4250C1877,4187 1871,4184 1795,4167C1588,4123 1426,3984 1350,3785C1333,3740 1326,3697 1322,3615C1317,3489 1331,3418 1382,3311C1425,3221 1549,3097 1643,3052C1764,2994 1796,2990 2213,2990L2590,2990L2644,2946C2746,2863 2872,2820 3012,2820C3150,2820 3264,2858 3375,2943L3436,2989L3660,2992C3862,2995 3891,2998 3943,3017C4241,3129 4374,3456 4234,3732C4204,3790 4125,3879 4064,3921C4026,3947 4022,3954 4016,4004C3990,4232 3797,4441 3562,4496C3512,4508 3467,4511 3386,4507L3277,4501L3246,4532C3200,4579 3107,4636 3037,4660C2955,4689 2771,4697 2691,4675ZM3010,4483C3121,4431 3120,4431 3057,4380C2976,4316 2961,4273 3004,4224C3040,4181 3085,4186 3152,4238C3182,4261 3212,4280 3217,4280C3233,4280 3259,4197 3266,4124C3273,4056 3293,4025 3335,4014C3366,4006 3411,4029 3428,4060C3445,4092 3437,4187 3410,4273C3399,4307 3390,4336 3390,4338C3390,4346 3493,4338 3536,4326C3657,4294 3757,4210 3811,4095C3849,4015 3849,4010 3797,4010C3721,4010 3679,3955 3706,3892C3720,3858 3753,3840 3801,3840C3818,3840 3833,3834 3837,3825C3848,3795 3797,3692 3729,3608C3683,3552 3718,3470 3789,3470C3839,3470 3906,3543 3963,3660L4008,3750L4040,3713C4095,3651 4114,3596 4114,3500C4115,3391 4090,3332 4014,3260C3926,3177 3892,3166 3709,3162L3553,3158L3578,3232C3611,3329 3614,3440 3585,3469C3574,3480 3551,3492 3533,3496C3506,3501 3496,3497 3470,3472C3449,3450 3440,3432 3440,3408C3440,3362 3415,3269 3389,3218C3357,3156 3267,3067 3206,3037C2936,2904 2631,3068 2590,3368C2578,3457 2570,3474 2530,3490C2489,3507 2442,3488 2425,3446C2409,3407 2422,3292 2450,3217C2461,3188 2470,3164 2470,3163C2470,3161 2329,3160 2158,3160C1827,3160 1789,3164 1701,3210C1633,3244 1554,3330 1517,3407C1487,3471 1485,3482 1485,3585C1485,3690 1487,3699 1519,3765C1570,3868 1662,3951 1767,3987L1796,3998L1797,3916C1798,3789 1832,3730 1904,3730C1927,3730 1969,3762 1971,3783C1972,3790 1973,3840 1974,3895C1975,3983 1978,4002 2003,4052C2045,4138 2129,4202 2217,4216L2257,4222L2249,4159C2235,4048 2288,3986 2366,4023C2400,4040 2420,4083 2420,4143C2420,4158 2424,4170 2428,4170C2443,4170 2518,4085 2538,4044C2565,3991 2584,3976 2625,3976C2695,3976 2725,4039 2691,4114C2658,4190 2611,4249 2548,4295L2489,4339L2531,4385C2618,4479 2723,4522 2855,4517C2931,4515 2955,4509 3010,4483Z" style="fill:rgb(196,181,253);fill-rule:nonzero;"/>
        <path d="M2320,3923C2282,3912 2260,3895 2251,3868C2233,3816 2266,3768 2330,3755C2377,3745 2407,3716 2415,3672C2424,3620 2455,3590 2500,3590C2603,3590 2610,3742 2512,3843C2492,3864 2463,3888 2447,3896C2415,3913 2341,3928 2320,3923Z" style="fill:rgb(196,181,253);fill-rule:nonzero;"/>
        <path d="M3163,3922C3133,3918 3100,3874 3100,3840C3100,3801 3133,3763 3176,3755C3232,3745 3250,3729 3266,3674C3283,3614 3307,3589 3347,3588C3388,3587 3415,3604 3430,3640C3458,3709 3399,3836 3316,3885C3272,3911 3201,3928 3163,3922Z" style="fill:rgb(196,181,253);fill-rule:nonzero;"/>
        <path d="M1695,3659C1661,3640 1650,3618 1650,3571C1650,3451 1750,3346 1874,3333C1919,3328 1930,3331 1955,3353C2012,3402 1985,3484 1908,3496C1857,3505 1824,3538 1815,3588C1812,3610 1801,3635 1791,3644C1768,3665 1719,3673 1695,3659Z" style="fill:rgb(196,181,253);fill-rule:nonzero;"/>
        <path d="M2805,3488C2771,3470 2760,3448 2760,3401C2761,3273 2878,3160 3009,3160C3120,3160 3240,3249 3240,3331C3240,3357 3233,3376 3218,3390C3179,3426 3138,3420 3083,3369C3011,3303 2953,3320 2925,3415C2913,3457 2903,3473 2880,3485C2846,3503 2832,3503 2805,3488Z" style="fill:rgb(196,181,253);fill-rule:nonzero;"/>
    </g>
</svg>
