<?xml version="1.0" encoding="UTF-8" standalone="no"?>
<!DOCTYPE svg PUBLIC "-//W3C//DTD SVG 1.1//EN" "http://www.w3.org/Graphics/SVG/1.1/DTD/svg11.dtd">
<svg width="100%" height="100%" viewBox="0 0 512 512" version="1.1" xmlns="http://www.w3.org/2000/svg" xmlns:xlink="http://www.w3.org/1999/xlink" xml:space="preserve" xmlns:serif="http://www.serif.com/" style="fill-rule:evenodd;clip-rule:evenodd;stroke-linejoin:round;stroke-miterlimit:2;">
    <g transform="matrix(0.1,0,0,-0.1,0,512)">
        <path d="M708,4986C638,4967 583,4926 552,4870C530,4828 518,4818 485,4809C333,4767 215,4640 181,4482C174,4446 170,4246 170,3860L170,3290L0,3290L0,3162C0,2942 38,2780 131,2600C278,2316 540,2097 858,1994L938,1969L942,1802C946,1660 950,1627 969,1578C1001,1495 1072,1435 1160,1416L1186,1411L1197,1238C1205,1118 1217,1035 1234,967C1336,569 1629,262 2010,156C2040,147 2109,136 2163,130C2740,71 3257,526 3320,1149C3326,1212 3330,1596 3330,2129C3330,2970 3331,3010 3350,3084C3417,3349 3635,3530 3885,3530C4023,3530 4136,3482 4246,3378C4298,3328 4329,3288 4358,3232C4413,3126 4430,3057 4437,2904L4443,2774L4388,2761C4249,2730 4112,2636 4031,2515C3856,2253 3912,1894 4157,1711C4413,1519 4754,1549 4965,1783C5179,2019 5168,2373 4940,2600C4860,2681 4764,2736 4664,2759L4613,2771L4607,2913C4600,3065 4585,3144 4544,3242C4458,3446 4292,3603 4090,3670C4000,3700 3830,3708 3737,3686C3481,3626 3281,3432 3189,3155L3165,3085L3159,2105C3153,1059 3155,1091 3104,935C3077,854 3011,730 2954,655C2549,116 1779,196 1474,808C1400,958 1378,1049 1373,1242L1367,1409L1396,1415C1489,1436 1558,1493 1591,1578C1610,1627 1614,1660 1618,1802L1622,1969L1702,1994C2020,2097 2282,2316 2429,2600C2522,2780 2560,2942 2560,3162L2560,3290L2390,3290L2390,3838C2390,4151 2385,4415 2380,4455C2366,4548 2332,4618 2268,4686C2209,4749 2156,4783 2084,4805C2041,4818 2031,4827 2005,4872C1910,5037 1658,5027 1567,4856C1537,4798 1537,4682 1567,4624C1593,4575 1647,4526 1697,4505C1746,4484 1846,4486 1896,4509C1940,4529 2006,4591 2016,4622C2029,4663 2117,4613 2174,4532C2200,4495 2204,4479 2211,4388C2215,4331 2219,4061 2219,3788L2220,3290L2053,3290L2047,3153C2040,2998 2024,2927 1974,2824C1820,2509 1427,2362 1065,2483C886,2542 732,2682 656,2853C617,2942 600,3037 600,3169L600,3290L339,3290L342,3878L345,4465L375,4520C405,4575 483,4640 519,4640C528,4640 545,4622 558,4599C604,4519 723,4470 820,4491C988,4527 1075,4711 995,4859C937,4964 819,5017 708,4986ZM828,4797C878,4751 839,4660 768,4660C750,4660 727,4666 718,4674C670,4710 679,4792 734,4816C770,4831 796,4826 828,4797ZM1824,4816C1859,4801 1884,4754 1873,4722C1851,4659 1779,4640 1735,4685C1685,4734 1712,4808 1788,4829C1789,4830 1806,4824 1824,4816ZM430,3075C430,2893 537,2662 686,2519C858,2356 1037,2282 1285,2273C1484,2265 1652,2307 1809,2402C2038,2540 2188,2780 2215,3048L2222,3120L2393,3120L2386,3044C2350,2650 2076,2308 1682,2166C1393,2063 1024,2082 758,2216C611,2289 459,2417 359,2550C262,2679 190,2873 174,3044L167,3120L430,3120L430,3075ZM4652,2585C4715,2567 4798,2512 4843,2459C5026,2245 4955,1916 4701,1796C4646,1771 4620,1765 4544,1762C4415,1756 4324,1788 4236,1869C4017,2072 4070,2435 4337,2562C4440,2611 4538,2618 4652,2585ZM1450,1822C1450,1695 1437,1630 1408,1603C1378,1576 1182,1576 1152,1603C1123,1630 1110,1695 1110,1822L1110,1935L1450,1935L1450,1822Z" style="fill:rgb(233,213,255);fill-rule:nonzero;"/>
        <path d="M4467,2429C4409,2415 4376,2395 4333,2346C4195,2189 4293,1947 4501,1932C4612,1924 4693,1967 4743,2057C4779,2124 4786,2183 4767,2251C4730,2378 4593,2459 4467,2429ZM4549,2259C4637,2228 4616,2101 4522,2100C4428,2099 4411,2230 4500,2263C4508,2266 4515,2269 4516,2269C4517,2270 4531,2265 4549,2259Z" style="fill:rgb(233,213,255);fill-rule:nonzero;"/>
    </g>
</svg>
