<?xml version="1.0" encoding="UTF-8" standalone="no"?><!DOCTYPE svg PUBLIC "-//W3C//DTD SVG 1.1//EN" "http://www.w3.org/Graphics/SVG/1.1/DTD/svg11.dtd"><svg width="100%" height="100%" viewBox="0 0 400 400" version="1.1" xmlns="http://www.w3.org/2000/svg" xmlns:xlink="http://www.w3.org/1999/xlink" xml:space="preserve" xmlns:serif="http://www.serif.com/" style="fill-rule:evenodd;clip-rule:evenodd;stroke-linejoin:round;stroke-miterlimit:2;"><rect id="Mesa-de-trabajo1" serif:id="Mesa de trabajo1" x="0" y="0" width="400" height="400" style="fill:none;"/><g id="Capa1"><path d="M200,5c107.623,0 195,87.377 195,195c0,107.623 -87.377,195 -195,195c-107.623,-0 -195,-87.377 -195,-195c0,-107.623 87.377,-195 195,-195Zm75.769,327.474c-0.358,-1.322 -0.7,-2.574 -1.007,-3.711c-3.074,-11.42 -13.765,-7.205 -8.784,-32.943c6.784,-35.057 46.835,-5.47 46.835,-5.47c18.008,-101.103 -54.742,-166.788 -110.998,-165.91c-56.257,0.879 -108.896,67.642 -70.243,124.743c38.653,57.1 90.921,28.989 90.921,28.989c-7.727,44.258 4.489,64.64 9.694,71.029c-10.375,2.232 -21.145,3.408 -32.187,3.408c-84.227,-0 -152.609,-68.382 -152.609,-152.609c0,-84.227 68.382,-152.609 152.609,-152.609c84.227,0 152.609,68.382 152.609,152.609c-0,56.66 -30.945,106.149 -76.84,132.474Zm-41.642,-160.082c23.154,28.449 17.148,62.688 17.148,62.688c0,-0 14.337,-7.135 28.111,-4.13c-5.438,-34.004 -28.534,-54.618 -45.259,-58.558Zm-53.254,21.635c8.111,-5 19.489,-1.285 25.39,8.291c5.902,9.576 4.108,21.409 -4.004,26.408c-8.111,5 -19.489,1.285 -25.39,-8.291c-5.902,-9.576 -4.108,-21.409 4.004,-26.408Z" style="fill:#0e1840;"/></g></svg>