<?xml version="1.0" encoding="UTF-8" standalone="no"?>
<!DOCTYPE svg PUBLIC "-//W3C//DTD SVG 1.1//EN" "http://www.w3.org/Graphics/SVG/1.1/DTD/svg11.dtd">
<svg width="100%" height="100%" viewBox="0 0 400 400" version="1.1" xmlns="http://www.w3.org/2000/svg" xmlns:xlink="http://www.w3.org/1999/xlink" xml:space="preserve" xmlns:serif="http://www.serif.com/" style="fill-rule:evenodd;clip-rule:evenodd;stroke-linejoin:round;stroke-miterlimit:2;">
    <g transform="matrix(0.589744,0,0,0.589744,82.0513,25.0513)">
        <path d="M200,5C307.623,5 395,92.377 395,200C395,307.623 307.623,395 200,395C92.377,395 5,307.623 5,200C5,92.377 92.377,5 200,5ZM275.769,332.474C275.411,331.152 275.069,329.9 274.762,328.763C271.688,317.343 260.997,321.558 265.978,295.82C272.762,260.763 312.813,290.35 312.813,290.35C330.821,189.247 258.071,123.562 201.815,124.44C145.558,125.319 92.919,192.082 131.572,249.183C170.225,306.283 222.493,278.172 222.493,278.172C214.766,322.43 226.982,342.812 232.187,349.201C221.812,351.433 211.042,352.609 200,352.609C115.773,352.609 47.391,284.227 47.391,200C47.391,115.773 115.773,47.391 200,47.391C284.227,47.391 352.609,115.773 352.609,200C352.609,256.66 321.664,306.149 275.769,332.474ZM234.127,172.392C257.281,200.841 251.275,235.08 251.275,235.08C251.275,235.08 265.612,227.945 279.386,230.95C273.948,196.946 250.852,176.332 234.127,172.392ZM180.873,194.027C188.984,189.027 200.362,192.742 206.263,202.318C212.165,211.894 210.371,223.727 202.259,228.726C194.148,233.726 182.77,230.011 176.869,220.435C170.967,210.859 172.761,199.026 180.873,194.027Z" style="fill:url(#_Radial1);"/>
    </g>
    <g transform="matrix(1,0,0,1,-405,-667.5)">
        <g transform="matrix(1,0,0,1,50.25,175)">
            <g transform="matrix(100,0,0,100,352,837.023)">
                <path d="M0.497,-0L0.08,-0L0.08,-0.7L0.238,-0.7L0.238,-0.128L0.497,-0.128L0.497,-0Z" style="fill:white;fill-rule:nonzero;"/>
            </g>
            <g transform="matrix(100,0,0,100,403.123,837.023)">
                <path d="M0.541,-0.5L0.338,0.04C0.289,0.17 0.215,0.235 0.117,0.235C0.08,0.235 0.049,0.231 0.025,0.222L0.025,0.099C0.045,0.111 0.068,0.117 0.092,0.117C0.132,0.117 0.159,0.098 0.175,0.061L0.201,-0.001L-0.002,-0.5L0.169,-0.5L0.262,-0.196C0.268,-0.177 0.273,-0.155 0.276,-0.129L0.278,-0.129C0.281,-0.148 0.286,-0.17 0.294,-0.195L0.388,-0.5L0.541,-0.5Z" style="fill:white;fill-rule:nonzero;"/>
            </g>
            <g transform="matrix(100,0,0,100,456.932,837.023)">
                <path d="M0.859,-0L0.705,-0L0.705,-0.285C0.705,-0.358 0.678,-0.394 0.625,-0.394C0.6,-0.394 0.579,-0.383 0.563,-0.361C0.547,-0.34 0.539,-0.312 0.539,-0.28L0.539,-0L0.385,-0L0.385,-0.288C0.385,-0.359 0.359,-0.394 0.306,-0.394C0.28,-0.394 0.259,-0.384 0.243,-0.363C0.227,-0.342 0.219,-0.314 0.219,-0.278L0.219,-0L0.065,-0L0.065,-0.5L0.219,-0.5L0.219,-0.422L0.221,-0.422C0.237,-0.449 0.26,-0.47 0.288,-0.487C0.317,-0.504 0.349,-0.512 0.383,-0.512C0.453,-0.512 0.502,-0.481 0.528,-0.419C0.566,-0.481 0.622,-0.512 0.696,-0.512C0.805,-0.512 0.859,-0.445 0.859,-0.311L0.859,-0Z" style="fill:white;fill-rule:nonzero;"/>
            </g>
            <g transform="matrix(100,0,0,100,548.533,837.023)">
                <path d="M0.221,-0.058L0.219,-0.058L0.219,-0L0.065,-0L0.065,-0.74L0.219,-0.74L0.219,-0.425L0.221,-0.425C0.259,-0.483 0.313,-0.512 0.384,-0.512C0.448,-0.512 0.498,-0.49 0.533,-0.446C0.568,-0.402 0.585,-0.341 0.585,-0.264C0.585,-0.181 0.565,-0.114 0.524,-0.063C0.483,-0.013 0.429,0.012 0.361,0.012C0.299,0.012 0.253,-0.011 0.221,-0.058ZM0.217,-0.269L0.217,-0.218C0.217,-0.186 0.226,-0.159 0.245,-0.138C0.263,-0.117 0.287,-0.106 0.316,-0.106C0.351,-0.106 0.378,-0.12 0.398,-0.147C0.417,-0.174 0.427,-0.212 0.427,-0.262C0.427,-0.304 0.418,-0.336 0.4,-0.359C0.382,-0.382 0.357,-0.394 0.324,-0.394C0.293,-0.394 0.268,-0.382 0.247,-0.359C0.227,-0.336 0.217,-0.306 0.217,-0.269Z" style="fill:white;fill-rule:nonzero;"/>
            </g>
            <g transform="matrix(100,0,0,100,610.545,837.023)">
                <path d="M0.143,-0.579C0.117,-0.579 0.096,-0.587 0.079,-0.602C0.063,-0.618 0.054,-0.637 0.054,-0.659C0.054,-0.682 0.063,-0.701 0.079,-0.716C0.096,-0.73 0.117,-0.738 0.143,-0.738C0.169,-0.738 0.191,-0.73 0.207,-0.716C0.224,-0.701 0.232,-0.682 0.232,-0.659C0.232,-0.636 0.224,-0.617 0.207,-0.602C0.191,-0.587 0.169,-0.579 0.143,-0.579ZM0.219,-0L0.065,-0L0.065,-0.5L0.219,-0.5L0.219,-0Z" style="fill:white;fill-rule:nonzero;"/>
            </g>
            <g transform="matrix(100,0,0,100,638.963,837.023)">
                <path d="M0.566,-0L0.381,-0L0.221,-0.248L0.219,-0.248L0.219,-0L0.065,-0L0.065,-0.74L0.219,-0.74L0.219,-0.269L0.221,-0.269L0.37,-0.5L0.553,-0.5L0.374,-0.265L0.566,-0Z" style="fill:white;fill-rule:nonzero;"/>
            </g>
            <g transform="matrix(100,0,0,100,694.871,837.023)">
                <path d="M0.481,-0L0.335,-0L0.335,-0.072L0.333,-0.072C0.299,-0.016 0.25,0.012 0.184,0.012C0.136,0.012 0.097,-0.002 0.07,-0.029C0.042,-0.057 0.028,-0.093 0.028,-0.139C0.028,-0.236 0.085,-0.292 0.2,-0.307L0.336,-0.325C0.336,-0.38 0.306,-0.407 0.247,-0.407C0.188,-0.407 0.131,-0.389 0.077,-0.354L0.077,-0.47C0.099,-0.481 0.128,-0.491 0.165,-0.5C0.203,-0.508 0.236,-0.512 0.267,-0.512C0.41,-0.512 0.481,-0.441 0.481,-0.299L0.481,-0ZM0.336,-0.203L0.336,-0.237L0.245,-0.225C0.195,-0.219 0.17,-0.196 0.17,-0.157C0.17,-0.14 0.176,-0.125 0.188,-0.114C0.2,-0.103 0.217,-0.097 0.238,-0.097C0.267,-0.097 0.29,-0.107 0.309,-0.127C0.327,-0.147 0.336,-0.173 0.336,-0.203Z" style="fill:white;fill-rule:nonzero;"/>
            </g>
        </g>
        <g transform="matrix(1,0,0,1,150.659,258)">
            <g transform="matrix(15,0,0,15,352,774.104)">
                <path d="M0.506,-0.626L0.304,-0.626L0.304,-0L0.222,-0L0.222,-0.626L0.02,-0.626L0.02,-0.7L0.506,-0.7L0.506,-0.626Z" style="fill:white;fill-rule:nonzero;"/>
            </g>
            <g transform="matrix(15,0,0,15,365.709,774.104)">
                <path d="M0.604,-0.283C0.604,-0.087 0.515,0.012 0.338,0.012C0.168,0.012 0.083,-0.083 0.083,-0.272L0.083,-0.7L0.165,-0.7L0.165,-0.277C0.165,-0.134 0.226,-0.062 0.347,-0.062C0.464,-0.062 0.522,-0.131 0.522,-0.27L0.522,-0.7L0.604,-0.7L0.604,-0.283Z" style="fill:white;fill-rule:nonzero;"/>
            </g>
            <g transform="matrix(15,0,0,15,391.823,774.104)">
                <path d="M0.059,-0.028L0.059,-0.125C0.07,-0.115 0.083,-0.106 0.099,-0.099C0.114,-0.091 0.131,-0.084 0.148,-0.079C0.165,-0.073 0.182,-0.069 0.199,-0.066C0.216,-0.063 0.232,-0.062 0.247,-0.062C0.298,-0.062 0.335,-0.071 0.36,-0.09C0.385,-0.109 0.397,-0.136 0.397,-0.171C0.397,-0.19 0.393,-0.206 0.385,-0.22C0.377,-0.234 0.365,-0.247 0.351,-0.259C0.336,-0.27 0.319,-0.281 0.299,-0.292C0.279,-0.302 0.257,-0.313 0.234,-0.325C0.209,-0.338 0.187,-0.35 0.166,-0.363C0.144,-0.375 0.126,-0.389 0.11,-0.405C0.095,-0.42 0.082,-0.437 0.073,-0.457C0.065,-0.476 0.06,-0.499 0.06,-0.525C0.06,-0.557 0.067,-0.585 0.081,-0.608C0.095,-0.632 0.113,-0.651 0.136,-0.667C0.159,-0.682 0.185,-0.693 0.214,-0.701C0.243,-0.708 0.273,-0.712 0.303,-0.712C0.372,-0.712 0.423,-0.704 0.454,-0.687L0.454,-0.595C0.413,-0.623 0.36,-0.638 0.295,-0.638C0.277,-0.638 0.259,-0.636 0.241,-0.632C0.223,-0.628 0.207,-0.622 0.193,-0.614C0.179,-0.605 0.168,-0.594 0.159,-0.581C0.15,-0.568 0.146,-0.551 0.146,-0.532C0.146,-0.514 0.149,-0.499 0.156,-0.486C0.163,-0.473 0.173,-0.461 0.186,-0.45C0.199,-0.439 0.214,-0.429 0.233,-0.419C0.252,-0.409 0.273,-0.398 0.298,-0.386C0.323,-0.373 0.347,-0.36 0.369,-0.347C0.392,-0.333 0.411,-0.318 0.428,-0.301C0.445,-0.285 0.459,-0.266 0.469,-0.246C0.478,-0.226 0.483,-0.203 0.483,-0.177C0.483,-0.142 0.477,-0.113 0.463,-0.089C0.45,-0.065 0.431,-0.046 0.408,-0.031C0.385,-0.016 0.359,-0.005 0.329,0.002C0.299,0.008 0.268,0.012 0.234,0.012C0.223,0.012 0.21,0.011 0.193,0.009C0.177,0.007 0.16,0.005 0.144,0.001C0.127,-0.002 0.111,-0.006 0.095,-0.011C0.08,-0.017 0.068,-0.022 0.059,-0.028Z" style="fill:white;fill-rule:nonzero;"/>
            </g>
            <g transform="matrix(15,0,0,15,405.642,774.104)">
                <path d="M0.242,-0.7L0.242,-0.63L0.174,-0.63L0.174,-0.07L0.242,-0.07L0.242,-0L0.023,-0L0.023,-0.07L0.092,-0.07L0.092,-0.63L0.023,-0.63L0.023,-0.7L0.242,-0.7Z" style="fill:white;fill-rule:nonzero;"/>
            </g>
            <g transform="matrix(15,0,0,15,415.483,774.104)">
                <path d="M0.059,-0.028L0.059,-0.125C0.07,-0.115 0.083,-0.106 0.099,-0.099C0.114,-0.091 0.131,-0.084 0.148,-0.079C0.165,-0.073 0.182,-0.069 0.199,-0.066C0.216,-0.063 0.232,-0.062 0.247,-0.062C0.298,-0.062 0.335,-0.071 0.36,-0.09C0.385,-0.109 0.397,-0.136 0.397,-0.171C0.397,-0.19 0.393,-0.206 0.385,-0.22C0.377,-0.234 0.365,-0.247 0.351,-0.259C0.336,-0.27 0.319,-0.281 0.299,-0.292C0.279,-0.302 0.257,-0.313 0.234,-0.325C0.209,-0.338 0.187,-0.35 0.166,-0.363C0.144,-0.375 0.126,-0.389 0.11,-0.405C0.095,-0.42 0.082,-0.437 0.073,-0.457C0.065,-0.476 0.06,-0.499 0.06,-0.525C0.06,-0.557 0.067,-0.585 0.081,-0.608C0.095,-0.632 0.113,-0.651 0.136,-0.667C0.159,-0.682 0.185,-0.693 0.214,-0.701C0.243,-0.708 0.273,-0.712 0.303,-0.712C0.372,-0.712 0.423,-0.704 0.454,-0.687L0.454,-0.595C0.413,-0.623 0.36,-0.638 0.295,-0.638C0.277,-0.638 0.259,-0.636 0.241,-0.632C0.223,-0.628 0.207,-0.622 0.193,-0.614C0.179,-0.605 0.168,-0.594 0.159,-0.581C0.15,-0.568 0.146,-0.551 0.146,-0.532C0.146,-0.514 0.149,-0.499 0.156,-0.486C0.163,-0.473 0.173,-0.461 0.186,-0.45C0.199,-0.439 0.214,-0.429 0.233,-0.419C0.252,-0.409 0.273,-0.398 0.298,-0.386C0.323,-0.373 0.347,-0.36 0.369,-0.347C0.392,-0.333 0.411,-0.318 0.428,-0.301C0.445,-0.285 0.459,-0.266 0.469,-0.246C0.478,-0.226 0.483,-0.203 0.483,-0.177C0.483,-0.142 0.477,-0.113 0.463,-0.089C0.45,-0.065 0.431,-0.046 0.408,-0.031C0.385,-0.016 0.359,-0.005 0.329,0.002C0.299,0.008 0.268,0.012 0.234,0.012C0.223,0.012 0.21,0.011 0.193,0.009C0.177,0.007 0.16,0.005 0.144,0.001C0.127,-0.002 0.111,-0.006 0.095,-0.011C0.08,-0.017 0.068,-0.022 0.059,-0.028Z" style="fill:white;fill-rule:nonzero;"/>
            </g>
            <g transform="matrix(15,0,0,15,429.302,774.104)">
                <path d="M0.506,-0.626L0.304,-0.626L0.304,-0L0.222,-0L0.222,-0.626L0.02,-0.626L0.02,-0.7L0.506,-0.7L0.506,-0.626Z" style="fill:white;fill-rule:nonzero;"/>
            </g>
            <g transform="matrix(15,0,0,15,443.011,774.104)">
                <path d="M0.463,-0L0.092,-0L0.092,-0.7L0.447,-0.7L0.447,-0.626L0.174,-0.626L0.174,-0.393L0.427,-0.393L0.427,-0.319L0.174,-0.319L0.174,-0.074L0.463,-0.074L0.463,-0Z" style="fill:white;fill-rule:nonzero;"/>
            </g>
            <g transform="matrix(15,0,0,15,456.449,774.104)">
                <path d="M0.806,-0L0.724,-0L0.724,-0.47C0.724,-0.507 0.726,-0.552 0.731,-0.606L0.729,-0.606C0.721,-0.574 0.714,-0.552 0.708,-0.538L0.469,-0L0.429,-0L0.19,-0.534C0.183,-0.55 0.176,-0.574 0.169,-0.606L0.167,-0.606C0.17,-0.578 0.171,-0.532 0.171,-0.469L0.171,-0L0.092,-0L0.092,-0.7L0.2,-0.7L0.415,-0.212C0.432,-0.174 0.442,-0.146 0.447,-0.128L0.45,-0.128C0.464,-0.166 0.475,-0.195 0.484,-0.214L0.703,-0.7L0.806,-0.7L0.806,-0Z" style="fill:white;fill-rule:nonzero;"/>
            </g>
            <g transform="matrix(15,0,0,15,475.768,774.104)">
                <path d="M0.634,-0L0.543,-0L0.469,-0.196L0.172,-0.196L0.102,-0L0.011,-0L0.279,-0.7L0.364,-0.7L0.634,-0ZM0.442,-0.27L0.332,-0.568C0.328,-0.578 0.325,-0.594 0.321,-0.615L0.319,-0.615C0.316,-0.595 0.312,-0.58 0.308,-0.568L0.199,-0.27L0.442,-0.27Z" style="fill:white;fill-rule:nonzero;"/>
            </g>
            <g transform="matrix(15,0,0,15,501.252,774.104)">
                <path d="M0.092,-0L0.092,-0.7L0.285,-0.7C0.532,-0.7 0.655,-0.586 0.655,-0.359C0.655,-0.251 0.621,-0.164 0.552,-0.098C0.484,-0.033 0.392,-0 0.277,-0L0.092,-0ZM0.174,-0.626L0.174,-0.074L0.278,-0.074C0.37,-0.074 0.442,-0.099 0.493,-0.148C0.544,-0.197 0.569,-0.267 0.569,-0.357C0.569,-0.536 0.474,-0.626 0.283,-0.626L0.174,-0.626Z" style="fill:white;fill-rule:nonzero;"/>
            </g>
            <g transform="matrix(15,0,0,15,517.62,774.104)">
                <path d="M0.463,-0L0.092,-0L0.092,-0.7L0.447,-0.7L0.447,-0.626L0.174,-0.626L0.174,-0.393L0.427,-0.393L0.427,-0.319L0.174,-0.319L0.174,-0.074L0.463,-0.074L0.463,-0Z" style="fill:white;fill-rule:nonzero;"/>
            </g>
            <g transform="matrix(15,0,0,15,541.017,774.104)">
                <path d="M0.568,-0.029C0.517,-0.002 0.452,0.012 0.375,0.012C0.275,0.012 0.196,-0.02 0.136,-0.084C0.076,-0.149 0.046,-0.233 0.046,-0.337C0.046,-0.449 0.08,-0.539 0.147,-0.608C0.214,-0.677 0.3,-0.712 0.403,-0.712C0.47,-0.712 0.525,-0.702 0.568,-0.683L0.568,-0.596C0.518,-0.624 0.463,-0.638 0.402,-0.638C0.322,-0.638 0.257,-0.611 0.207,-0.557C0.157,-0.503 0.132,-0.432 0.132,-0.342C0.132,-0.257 0.155,-0.189 0.202,-0.138C0.249,-0.087 0.31,-0.062 0.386,-0.062C0.456,-0.062 0.517,-0.078 0.568,-0.109L0.568,-0.029Z" style="fill:white;fill-rule:nonzero;"/>
            </g>
            <g transform="matrix(15,0,0,15,556.154,774.104)">
                <path d="M0.604,-0.283C0.604,-0.087 0.515,0.012 0.338,0.012C0.168,0.012 0.083,-0.083 0.083,-0.272L0.083,-0.7L0.165,-0.7L0.165,-0.277C0.165,-0.134 0.226,-0.062 0.347,-0.062C0.464,-0.062 0.522,-0.131 0.522,-0.27L0.522,-0.7L0.604,-0.7L0.604,-0.283Z" style="fill:white;fill-rule:nonzero;"/>
            </g>
            <g transform="matrix(15,0,0,15,572.309,774.104)">
                <path d="M0.242,-0.7L0.242,-0.63L0.174,-0.63L0.174,-0.07L0.242,-0.07L0.242,-0L0.023,-0L0.023,-0.07L0.092,-0.07L0.092,-0.63L0.023,-0.63L0.023,-0.7L0.242,-0.7Z" style="fill:white;fill-rule:nonzero;"/>
            </g>
            <g transform="matrix(15,0,0,15,582.151,774.104)">
                <path d="M0.092,-0L0.092,-0.7L0.285,-0.7C0.532,-0.7 0.655,-0.586 0.655,-0.359C0.655,-0.251 0.621,-0.164 0.552,-0.098C0.484,-0.033 0.392,-0 0.277,-0L0.092,-0ZM0.174,-0.626L0.174,-0.074L0.278,-0.074C0.37,-0.074 0.442,-0.099 0.493,-0.148C0.544,-0.197 0.569,-0.267 0.569,-0.357C0.569,-0.536 0.474,-0.626 0.283,-0.626L0.174,-0.626Z" style="fill:white;fill-rule:nonzero;"/>
            </g>
            <g transform="matrix(15,0,0,15,598.518,774.104)">
                <path d="M0.634,-0L0.543,-0L0.469,-0.196L0.172,-0.196L0.102,-0L0.011,-0L0.279,-0.7L0.364,-0.7L0.634,-0ZM0.442,-0.27L0.332,-0.568C0.328,-0.578 0.325,-0.594 0.321,-0.615L0.319,-0.615C0.316,-0.595 0.312,-0.58 0.308,-0.568L0.199,-0.27L0.442,-0.27Z" style="fill:white;fill-rule:nonzero;"/>
            </g>
            <g transform="matrix(15,0,0,15,614.044,774.104)">
                <path d="M0.092,-0L0.092,-0.7L0.285,-0.7C0.532,-0.7 0.655,-0.586 0.655,-0.359C0.655,-0.251 0.621,-0.164 0.552,-0.098C0.484,-0.033 0.392,-0 0.277,-0L0.092,-0ZM0.174,-0.626L0.174,-0.074L0.278,-0.074C0.37,-0.074 0.442,-0.099 0.493,-0.148C0.544,-0.197 0.569,-0.267 0.569,-0.357C0.569,-0.536 0.474,-0.626 0.283,-0.626L0.174,-0.626Z" style="fill:white;fill-rule:nonzero;"/>
            </g>
            <g transform="matrix(15,0,0,15,630.411,774.104)">
                <path d="M0.374,0.012C0.275,0.012 0.195,-0.021 0.135,-0.086C0.076,-0.152 0.046,-0.237 0.046,-0.342C0.046,-0.454 0.076,-0.544 0.137,-0.611C0.198,-0.678 0.281,-0.712 0.386,-0.712C0.482,-0.712 0.56,-0.679 0.619,-0.614C0.678,-0.549 0.708,-0.464 0.708,-0.359C0.708,-0.245 0.678,-0.154 0.617,-0.088C0.557,-0.021 0.476,0.012 0.374,0.012ZM0.38,-0.638C0.306,-0.638 0.247,-0.611 0.201,-0.558C0.155,-0.505 0.132,-0.435 0.132,-0.349C0.132,-0.263 0.154,-0.193 0.199,-0.141C0.244,-0.088 0.302,-0.062 0.374,-0.062C0.451,-0.062 0.511,-0.087 0.556,-0.137C0.6,-0.187 0.622,-0.257 0.622,-0.348C0.622,-0.44 0.601,-0.512 0.558,-0.562C0.515,-0.612 0.455,-0.638 0.38,-0.638Z" style="fill:white;fill-rule:nonzero;"/>
            </g>
            <g transform="matrix(15,0,0,15,647.57,774.104)">
                <path d="M0.109,0.011C0.094,0.011 0.081,0.005 0.071,-0.005C0.06,-0.016 0.055,-0.029 0.055,-0.044C0.055,-0.059 0.06,-0.072 0.071,-0.083C0.081,-0.094 0.094,-0.099 0.109,-0.099C0.124,-0.099 0.137,-0.094 0.148,-0.083C0.159,-0.072 0.164,-0.059 0.164,-0.044C0.164,-0.029 0.159,-0.016 0.148,-0.005C0.137,0.005 0.124,0.011 0.109,0.011Z" style="fill:white;fill-rule:nonzero;"/>
            </g>
        </g>
    </g>
    <defs>
        <radialGradient id="_Radial1" cx="0" cy="0" r="1" gradientUnits="userSpaceOnUse" gradientTransform="matrix(154.304,0,0,154.304,200,200)"><stop offset="0" style="stop-color:rgb(215,223,34);stop-opacity:1"/><stop offset="1" style="stop-color:rgb(63,105,178);stop-opacity:1"/></radialGradient>
    </defs>
</svg>
